# xmcd
#
# Track frame offsets:
#	150
#	16467
#	37662
#	55847
#	75977
#	95600
#	113860
#	127662
#	144982
#	161822
#	186905
#	200170
#
# Disc length: 2897 seconds
#
# Revision: 1
# Processed by: cddbd v1.5.1PL0 Copyright (c) Steve Scherf et al.
# Submitted via: audiograbber 1.82.02
#
DISCID=960b4f0c
DTITLE=Billie Holiday - Day In, Day Out
DYEAR=2000
DGENRE=Blues
TTITLE0=Cheek To Cheek
TTITLE1=Foggy Day
TTITLE2=Comes Love
TTITLE3=Speak Low
TTITLE4=Please Don't Talk About Me When I'm Gone
TTITLE5=It Had To Be You
TTITLE6=On The Sunny Side Of The Street
TTITLE7=Nice Work If You Can Get It
TTITLE8=Love Is Here To Stay
TTITLE9=Just One Of Those Things
TTITLE10=East Of The Sun (And West Of The Moon)
TTITLE11=But Not For Me
EXTD=
EXTT0=
EXTT1=
EXTT2=
EXTT3=
EXTT4=
EXTT5=
EXTT6=
EXTT7=
EXTT8=
EXTT9=
EXTT10=
EXTT11=
PLAYORDER=
